# File created by Blade
# Date/Time:  Thu Jan 22 19:34:22 2015
#---------------------------------------------------------
:version 1.10
:name HOM
:units
  mass 1.0
  length 1.000000
  angle deg
:documentation
     Acclaim Skeleton File
:root
   axis xyz
   order TX TY TZ RX RY RZ
   position 0.000000 0.000000 0.000000
   orientation 0 0 0
:bonedata
   begin
      id 1
      name RightUpLeg_dum
      direction -1.000000 0.000000 0.000000
      length 4.478084
      axis 0.0 0.0 0.0 xyz
   end
   begin
      id 2
      name LeftUpLeg_dum
      direction 1.000000 0.000000 0.000000
      length 4.478084
      axis 0.0 0.0 0.0 xyz
   end
   begin
      id 3
      name Spine_dum
      direction 0.000000 1.000000 0.000000
      length 6.068208
      axis 0.0 0.0 0.0 xyz
   end
   begin
      id 4
      name RightUpLeg
      direction 0.000000 -1.000000 0.000000
      length 16.405774
      axis 0.0 0.0 0.0 xyz
      dof rx ry rz
   end
   begin
      id 5
      name RightLeg
      direction 0.000000 -1.000000 0.000000
      length 14.644143
      axis 0.0 0.0 0.0 xyz
      dof rx ry rz
   end
   begin
      id 6
      name RightFoot
      direction 0.000000 -0.258819 0.965926
      length 5.806150
      axis 15.0 0.0 0.0 xyz
      dof rx ry rz
   end
   begin
      id 7
      name RightToeBase
      direction 0.000000 0.000000 1.000000
      length 2.952750
      axis 0.0 0.0 0.0 xyz
      dof rx ry rz
   end
   begin
      id 8
      name LeftUpLeg
      direction 0.000000 -1.000000 0.000000
      length 16.405774
      axis 0.0 0.0 0.0 xyz
      dof rx ry rz
   end
   begin
      id 9
      name LeftLeg
      direction 0.000000 -1.000000 0.000000
      length 14.644143
      axis 0.0 0.0 0.0 xyz
      dof rx ry rz
   end
   begin
      id 10
      name LeftFoot
      direction 0.000000 -0.258819 0.965926
      length 5.806150
      axis 15.0 0.0 0.0 xyz
      dof rx ry rz
   end
   begin
      id 11
      name LeftToeBase
      direction 0.000000 0.000000 1.000000
      length 2.952750
      axis 0.0 0.0 0.0 xyz
      dof rx ry rz
   end
   begin
      id 12
      name Spine
      direction 0.000000 1.000000 0.000000
      length 0.000000
      axis 0.0 0.0 0.0 xyz
      dof rx ry rz
   end
   begin
      id 13
      name Spine_dum1
      direction 0.000000 1.000000 0.000000
      length 10.013923
      axis 0.0 0.0 0.0 xyz
   end
   begin
      id 14
      name Spine_dum2
      direction 0.000000 1.000000 0.000000
      length 10.013923
      axis 0.0 0.0 0.0 xyz
   end
   begin
      id 15
      name Spine_dum3
      direction 0.000000 1.000000 0.000000
      length 15.777476
      axis 0.0 0.0 0.0 xyz
   end
   begin
      id 16
      name RightShoulder
      direction -1.000000 0.000000 0.000000
      length 7.190220
      axis 0.0 0.0 90.0 xyz
      dof rx ry rz
   end
   begin
      id 17
      name RightArm
      direction -1.000000 0.000000 0.000000
      length 10.177469
      axis 0.0 0.0 90.0 xyz
      dof rx ry rz
   end
   begin
      id 18
      name RightForeArm
      direction -1.000000 0.000000 0.000000
      length 8.392114
      axis 0.0 0.0 90.0 xyz
      dof ry rz rx
   end
   begin
      id 19
      name RightHand
      direction -1.000000 0.000000 0.000000
      length 0.000000
      axis 0.0 0.0 90.0 xyz
      dof rx ry rz
   end
   begin
      id 20
      name RightHand_dum1
      direction -1.000000 0.000000 0.000000
      length 3.937000
      axis 0.0 0.0 90.0 xyz
   end
   begin
      id 21
      name RightHand_dum2
      direction 0.000000 0.000000 0.000000
      length 0.000000
      axis 0.0 0.0 90.0 xyz
   end
   begin
      id 22
      name RightHandThumb1
      direction 0.000000 0.000000 1.000000
      length 3.937000
      axis 0.0 0.0 90.0 xyz
      dof rx rz ry
   end
   begin
      id 23
      name LeftShoulder
      direction 1.000000 0.000000 0.000000
      length 7.190220
      axis 0.0 0.0 -90.0 xyz
      dof rx ry rz
   end
   begin
      id 24
      name LeftArm
      direction 1.000000 0.000000 0.000000
      length 10.177469
      axis 0.0 0.0 -90.0 xyz
      dof rx ry rz
   end
   begin
      id 25
      name LeftForeArm
      direction 1.000000 0.000000 0.000000
      length 8.392114
      axis 0.0 0.0 -90.0 xyz
      dof ry rz rx
   end
   begin
      id 26
      name LeftHand
      direction 1.000000 0.000000 0.000000
      length 0.000000
      axis 0.0 0.0 -90.0 xyz
      dof rx ry rz
   end
   begin
      id 27
      name LeftHand_dum1
      direction 1.000000 0.000000 0.000000
      length 3.937000
      axis 0.0 0.0 -90.0 xyz
   end
   begin
      id 28
      name LeftHand_dum2
      direction 0.000000 0.000000 0.000000
      length 0.000000
      axis 0.0 0.0 -90.0 xyz
   end
   begin
      id 29
      name LeftHandThumb1
      direction 0.000000 0.000000 1.000000
      length 3.937000
      axis 0.0 0.0 -90.0 xyz
      dof rx rz ry
   end
   begin
      id 30
      name Head
      direction 0.000000 1.000000 0.000000
      length 4.527550
      axis 0.0 0.0 0.0 xyz
      dof rx ry rz
   end
:hierarchy
   begin
      root RightUpLeg_dum LeftUpLeg_dum Spine_dum
      RightUpLeg_dum RightUpLeg
      LeftUpLeg_dum LeftUpLeg
      Spine_dum Spine
      RightUpLeg RightLeg
      RightLeg RightFoot
      RightFoot RightToeBase
      LeftUpLeg LeftLeg
      LeftLeg LeftFoot
      LeftFoot LeftToeBase
      Spine Spine_dum1 Spine_dum2 Spine_dum3
      Spine_dum1 RightShoulder
      Spine_dum2 LeftShoulder
      Spine_dum3 Head
      RightShoulder RightArm
      RightArm RightForeArm
      RightForeArm RightHand
      RightHand RightHand_dum1 RightHand_dum2
      RightHand_dum2 RightHandThumb1
      LeftShoulder LeftArm
      LeftArm LeftForeArm
      LeftForeArm LeftHand
      LeftHand LeftHand_dum1 LeftHand_dum2
      LeftHand_dum2 LeftHandThumb1
   end

# File created by Blade
# Date/Time:  Thu Jan 22 19:34:15 2015
# Frame Rate: 120.000 fps
#------------------------------------------------------
:FULLY-SPECIFIED
:DEGREES
362
root -10.349228 30.631549 -4.670574 12.745897 -20.001769 1.249412
RightUpLeg -29.929986 -23.236005 -9.327361
RightLeg 34.638778 -0.000000 -0.000000
RightFoot -19.367988 -1.076363 13.464485
RightToeBase 6.511182 -0.000000 -0.000000
LeftUpLeg -14.779277 2.135046 17.411642
LeftLeg 27.357432 -0.000000 -0.000000
LeftFoot -25.102849 0.522138 -29.870885
LeftToeBase 7.475784 -0.000000 -0.000000
Spine -5.465416 -1.161975 -7.613781
RightShoulder -19.144855 -17.114601 -18.290610
RightArm 24.260409 5.401292 48.898810
RightForeArm -19.820299 0.000000 51.247446
RightHand 13.232791 -0.000000 6.862017
RightHandThumb1 -24.326973 -0.000000 -32.862282
LeftShoulder -24.652656 9.002582 20.749682
LeftArm 10.087801 -1.004406 -69.338612
LeftForeArm 24.641723 -0.000000 24.710443
LeftHand -1.572129 0.000000 -14.292015
LeftHandThumb1 -26.253704 0.000000 33.147579
Head 0.507776 2.161358 0.486553
363
root -10.471691 30.568735 -4.767947 12.996164 -20.103973 1.379656
RightUpLeg -31.041218 -23.403235 -8.976860
RightLeg 35.935404 -0.000000 -0.000000
RightFoot -19.959085 -0.891222 12.994792
RightToeBase 6.369117 -0.000000 -0.000000
LeftUpLeg -14.944204 1.797711 17.769987
LeftLeg 27.069446 -0.000000 -0.000000
LeftFoot -24.857832 0.118977 -30.024641
LeftToeBase 7.285505 -0.000000 -0.000000
Spine -5.418403 -1.036871 -7.532744
RightShoulder -19.044458 -16.911482 -18.431704
RightArm 24.351048 5.522600 48.967011
RightForeArm -19.758844 -0.000000 51.098309
RightHand 12.722086 -0.000000 6.379890
RightHandThumb1 -24.326973 -0.000000 -32.862282
LeftShoulder -24.674680 9.035100 20.608558
LeftArm 10.342392 -0.434226 -69.577793
LeftForeArm 24.795570 -0.000000 25.139491
LeftHand -1.425692 0.000000 -14.553175
LeftHandThumb1 -26.253704 0.000000 33.147579
Head -0.028132 2.353015 0.251077
364
root -10.592935 30.507087 -4.864864 13.229733 -20.162678 1.463459
RightUpLeg -32.127766 -23.577657 -8.595581
RightLeg 37.260528 -0.000000 -0.000000
RightFoot -20.477746 -0.734934 12.535689
RightToeBase 6.297133 -0.000000 -0.000000
LeftUpLeg -15.076556 1.544972 18.157144
LeftLeg 26.747381 -0.000000 -0.000000
LeftFoot -24.626339 -0.310705 -30.222299
LeftToeBase 7.187462 -0.000000 -0.000000
Spine -5.327745 -0.934991 -7.400381
RightShoulder -18.941773 -16.694428 -18.597908
RightArm 24.385810 5.633254 49.062628
RightForeArm -19.859777 -0.000000 50.915801
RightHand 13.129499 -0.000000 6.543115
RightHandThumb1 -24.326973 -0.000000 -32.862282
LeftShoulder -24.651301 8.894133 20.539032
LeftArm 10.398275 0.153177 -69.810139
LeftForeArm 25.122117 -0.000000 25.633646
LeftHand -1.439674 -0.000000 -14.674115
LeftHandThumb1 -26.253704 0.000000 33.147579
Head -0.547781 2.564309 0.054062
365
root -10.710517 30.445782 -4.963589 13.459180 -20.178332 1.544245
RightUpLeg -33.200467 -23.777444 -8.217926
RightLeg 38.590353 -0.000000 -0.000000
RightFoot -20.939649 -0.586627 12.135305
RightToeBase 6.191574 -0.000000 -0.000000
LeftUpLeg -15.233376 1.440153 18.519934
LeftLeg 26.432134 -0.000000 -0.000000
LeftFoot -24.365844 -0.825842 -30.451803
LeftToeBase 7.152883 -0.000000 -0.000000
Spine -5.213806 -0.903069 -7.246054
RightShoulder -18.838047 -16.585626 -18.727708
RightArm 24.525179 5.817694 49.169602
RightForeArm -19.864794 -0.000000 50.806419
RightHand 13.198251 -0.000000 6.549223
RightHandThumb1 -24.326973 -0.000000 -32.862282
LeftShoulder -24.679044 8.924809 20.416056
LeftArm 10.645024 0.753837 -70.067069
LeftForeArm 25.295053 -0.000000 26.096168
LeftHand -1.323344 -0.000000 -14.880684
LeftHandThumb1 -26.253704 0.000000 33.147579
Head -1.062961 2.764717 -0.159871
366
root -10.823096 30.383796 -5.057166 13.668347 -20.148918 1.660249
RightUpLeg -34.193359 -23.970184 -7.913952
RightLeg 39.853787 -0.000000 -0.000000
RightFoot -21.405631 -0.396850 11.851986
RightToeBase 6.048829 -0.000000 -0.000000
LeftUpLeg -15.384924 1.451304 18.814965
LeftLeg 26.088528 -0.000000 -0.000000
LeftFoot -24.105803 -1.362791 -30.659064
LeftToeBase 7.346250 -0.000000 -0.000000
Spine -5.115102 -0.894048 -7.120366
RightShoulder -18.726966 -16.424123 -18.868741
RightArm 24.607601 5.908335 49.205452
RightForeArm -19.709197 -0.000000 50.591530
RightHand 13.234113 0.000000 6.258739
RightHandThumb1 -24.326973 -0.000000 -32.862282
LeftShoulder -24.643336 8.847322 20.346832
LeftArm 10.776128 1.364146 -70.304000
LeftForeArm 25.486435 -0.000000 26.574921
LeftHand -1.424158 -0.000000 -14.745783
LeftHandThumb1 -26.253704 0.000000 33.147579
Head -1.513527 2.900409 -0.374083
367
root -10.936566 30.323518 -5.150308 13.892916 -20.077913 1.741684
RightUpLeg -35.116581 -24.186567 -7.570736
RightLeg 41.002443 -0.000000 -0.000000
RightFoot -21.863325 -0.229707 11.527708
RightToeBase 5.926041 -0.000000 -0.000000
LeftUpLeg -15.546680 1.708746 19.115450
LeftLeg 25.724194 -0.000000 -0.000000
LeftFoot -23.763579 -1.989515 -30.767575
LeftToeBase 7.495988 -0.000000 -0.000000
Spine -5.026419 -0.927501 -6.957277
RightShoulder -18.626554 -16.365925 -18.976076
RightArm 24.754373 6.045152 49.274007
RightForeArm -19.645125 0.000000 50.470367
RightHand 13.122578 -0.000000 6.132819
RightHandThumb1 -24.326973 -0.000000 -32.862282
LeftShoulder -24.594315 8.808769 20.304144
LeftArm 10.870532 1.984082 -70.571039
LeftForeArm 25.785674 -0.000000 27.098041
LeftHand -1.346609 -0.000000 -15.073527
LeftHandThumb1 -26.253704 0.000000 33.147579
Head -1.925089 3.118319 -0.569797
368
root -11.046447 30.263196 -5.241089 14.083575 -19.950589 1.820665
RightUpLeg -35.925107 -24.455775 -7.246455
RightLeg 42.027058 -0.000000 -0.000000
RightFoot -22.317170 -0.015272 11.258707
RightToeBase 5.870669 -0.000000 -0.000000
LeftUpLeg -15.701488 2.008291 19.398761
LeftLeg 25.368828 -0.000000 -0.000000
LeftFoot -23.399807 -2.622947 -30.875610
LeftToeBase 7.624953 -0.000000 -0.000000
Spine -4.894035 -1.032352 -6.762085
RightShoulder -18.499694 -16.205039 -19.116494
RightArm 24.843680 6.138649 49.315486
RightForeArm -19.548393 -0.000000 50.315681
RightHand 13.139450 -0.000000 6.128700
RightHandThumb1 -24.326973 -0.000000 -32.862282
LeftShoulder -24.573386 8.836431 20.228141
LeftArm 11.048628 2.586851 -70.853312
LeftForeArm 26.132161 -0.000000 27.601819
LeftHand -1.337570 -0.000000 -15.273597
LeftHandThumb1 -26.253704 0.000000 33.147579
Head -2.322539 3.293703 -0.783291
369
root -11.157993 30.204237 -5.331954 14.289149 -19.785082 1.866952
RightUpLeg -36.664611 -24.707197 -6.895770
RightLeg 42.938320 -0.000000 -0.000000
RightFoot -22.769294 0.168469 11.002468
RightToeBase 5.856163 -0.000000 -0.000000
LeftUpLeg -15.878246 2.414809 19.705799
LeftLeg 25.018484 -0.000000 -0.000000
LeftFoot -22.971236 -3.316744 -30.976606
LeftToeBase 7.687682 -0.000000 -0.000000
Spine -4.786861 -1.152901 -6.553051
RightShoulder -18.365078 -16.052781 -19.245512
RightArm 24.928080 6.219847 49.380286
RightForeArm -19.614172 -0.000000 50.108945
RightHand 13.283444 -0.000000 6.016656
RightHandThumb1 -24.326973 -0.000000 -32.862282
LeftShoulder -24.492167 8.753116 20.222618
LeftArm 11.063657 3.151615 -71.139863
LeftForeArm 26.566513 -0.000000 28.174817
LeftHand -1.398025 -0.000000 -14.801234
LeftHandThumb1 -26.253704 0.000000 33.147579
Head -2.661647 3.458065 -0.923965
370
root -11.267977 30.148543 -5.416601 14.443250 -19.601245 1.931885
RightUpLeg -37.309997 -25.056343 -6.556749
RightLeg 43.769731 -0.000000 -0.000000
RightFoot -23.218930 0.391111 10.688486
RightToeBase 5.729307 -0.000000 -0.000000
LeftUpLeg -16.007181 2.847049 19.967576
LeftLeg 24.649319 -0.000000 -0.000000
LeftFoot -22.512449 -3.968978 -31.034604
LeftToeBase 7.703818 -0.000000 -0.000000
Spine -4.646888 -1.252694 -6.381169
RightShoulder -18.291230 -15.949943 -19.281562
RightArm 25.046498 6.264679 49.340397
RightForeArm -19.544481 -0.000000 49.912005
RightHand 13.191791 -0.000000 5.785197
RightHandThumb1 -24.326973 -0.000000 -32.862282
LeftShoulder -24.429622 8.762296 20.203728
LeftArm 11.249234 3.797493 -71.403012
LeftForeArm 26.896293 -0.000000 28.679006
LeftHand -1.470187 -0.000000 -14.442523
LeftHandThumb1 -26.253704 0.000000 33.147579
Head -2.940738 3.570403 -1.008399
371
root -11.380912 30.094363 -5.501643 14.608128 -19.332167 1.914486
RightUpLeg -37.871629 -25.466907 -6.123941
RightLeg 44.509854 -0.000000 -0.000000
RightFoot -23.652617 0.636671 10.395831
RightToeBase 5.773815 -0.000000 -0.000000
LeftUpLeg -16.156843 3.264315 20.333557
LeftLeg 24.292800 -0.000000 -0.000000
LeftFoot -22.022699 -4.703332 -31.088593
LeftToeBase 7.855421 -0.000000 -0.000000
Spine -4.483215 -1.414143 -6.092183
RightShoulder -18.247992 -15.833071 -19.333870
RightArm 25.207948 6.258794 49.276934
RightForeArm -19.587732 -0.000000 49.652283
RightHand 13.506572 -0.000000 5.908266
RightHandThumb1 -24.326973 -0.000000 -32.862282
LeftShoulder -24.367549 8.769160 20.135104
LeftArm 11.430226 4.304325 -71.666653
LeftForeArm 27.398201 -0.000000 29.223630
LeftHand -1.415517 -0.000000 -14.439034
LeftHandThumb1 -26.253704 0.000000 33.147579
Head -3.237730 3.689187 -1.119219
372
root -11.489035 30.044408 -5.583341 14.777727 -19.025374 1.925531
RightUpLeg -38.422395 -25.960960 -5.691729
RightLeg 45.197631 -0.000000 -0.000000
RightFoot -24.075803 0.847543 10.053379
RightToeBase 5.746508 -0.000000 -0.000000
LeftUpLeg -16.344282 3.697065 20.651072
LeftLeg 23.926456 -0.000000 -0.000000
LeftFoot -21.477805 -5.415716 -31.143660
LeftToeBase 7.919306 -0.000000 -0.000000
Spine -4.374593 -1.572070 -5.830155
RightShoulder -18.201283 -15.802102 -19.356835
RightArm 25.353650 6.352481 49.298474
RightForeArm -19.685101 0.000000 49.452939
RightHand 13.442912 -0.000000 5.808604
RightHandThumb1 -24.326973 -0.000000 -32.862282
LeftShoulder -24.284769 8.719459 20.101029
LeftArm 11.609699 4.911309 -71.904146
LeftForeArm 27.584982 -0.000000 29.715015
LeftHand -1.488337 -0.000000 -14.660161
LeftHandThumb1 -26.253704 0.000000 33.147579
Head -3.406844 3.754098 -1.228071
